<svg xmlns="http://www.w3.org/2000/svg" width="1200" height="630" viewBox="0 0 1200 630" font-family="ui-monospace, 'SF Mono', SFMono-Regular, Menlo, Consolas, 'DejaVu Sans Mono', monospace">
<defs>
<radialGradient id="shell-wrapped-glow-dark" cx="0.82" cy="0.05" r="0.75">
<stop offset="0%" stop-color="#1b2340" stop-opacity="1"/>
<stop offset="100%" stop-color="#1b2340" stop-opacity="0"/>
</radialGradient>
</defs>
<rect width="1200" height="630" fill="#0b1020"/>
<rect width="1200" height="630" fill="url(#shell-wrapped-glow-dark)"/>
<text x="64" y="108" font-size="26" fill="#c084fc" font-weight="700" letter-spacing="9">SHELL WRAPPED</text>
<text x="64" y="248" font-size="124" fill="#e6ebff" font-weight="700">2,400</text>
<text x="64" y="294" font-size="25" fill="#8a93b2" font-weight="400">commands in your shell history</text>
<text x="64" y="344" font-size="21" fill="#8a93b2" font-weight="400">22 different commands  ·  10 a day  ·  2026-01-06 → 2026-09-01</text>
<text x="640" y="92" font-size="20" fill="#8a93b2" font-weight="400" letter-spacing="3">most used</text>
<text x="640" y="120" font-size="26" fill="#e6ebff" font-weight="600">git</text>
<text x="1136" y="120" font-size="24" fill="#8a93b2" font-weight="400" text-anchor="end">1,548</text>
<rect x="640" y="132" width="496" height="10" rx="5" fill="#1c2440"/>
<rect x="640" y="132" width="496" height="10" rx="5" fill="#38bdf8"/>
<text x="640" y="182" font-size="26" fill="#e6ebff" font-weight="600">npm</text>
<text x="1136" y="182" font-size="24" fill="#8a93b2" font-weight="400" text-anchor="end">344</text>
<rect x="640" y="194" width="496" height="10" rx="5" fill="#1c2440"/>
<rect x="640" y="194" width="110" height="10" rx="5" fill="#38bdf8"/>
<text x="640" y="244" font-size="26" fill="#e6ebff" font-weight="600">cd</text>
<text x="1136" y="244" font-size="24" fill="#8a93b2" font-weight="400" text-anchor="end">111</text>
<rect x="640" y="256" width="496" height="10" rx="5" fill="#1c2440"/>
<rect x="640" y="256" width="36" height="10" rx="5" fill="#38bdf8"/>
<text x="640" y="306" font-size="26" fill="#e6ebff" font-weight="600">docker</text>
<text x="1136" y="306" font-size="24" fill="#8a93b2" font-weight="400" text-anchor="end">106</text>
<rect x="640" y="318" width="496" height="10" rx="5" fill="#1c2440"/>
<rect x="640" y="318" width="34" height="10" rx="5" fill="#38bdf8"/>
<text x="640" y="368" font-size="26" fill="#e6ebff" font-weight="600">ls</text>
<text x="1136" y="368" font-size="24" fill="#8a93b2" font-weight="400" text-anchor="end">78</text>
<rect x="640" y="380" width="496" height="10" rx="5" fill="#1c2440"/>
<rect x="640" y="380" width="25" height="10" rx="5" fill="#38bdf8"/>
<text x="64" y="406" font-size="20" fill="#8a93b2" font-weight="400">busiest at 11:00  ·  Thursday  ·  17% after 22:00</text>
<rect x="64" y="486" width="38.67" height="20" rx="4" fill="#38bdf8" opacity="0.55"/>
<rect x="108.67" y="481" width="38.67" height="25" rx="4" fill="#38bdf8" opacity="0.55"/>
<rect x="153.33" y="478" width="38.67" height="28" rx="4" fill="#38bdf8" opacity="0.55"/>
<rect x="198" y="486" width="38.67" height="20" rx="4" fill="#38bdf8" opacity="0.55"/>
<rect x="242.67" y="484" width="38.67" height="22" rx="4" fill="#38bdf8" opacity="0.55"/>
<rect x="287.33" y="503" width="38.67" height="3" rx="4" fill="#38bdf8" opacity="0.55"/>
<rect x="332" y="503" width="38.67" height="3" rx="4" fill="#38bdf8" opacity="0.55"/>
<rect x="376.67" y="503" width="38.67" height="3" rx="4" fill="#38bdf8" opacity="0.55"/>
<rect x="421.33" y="503" width="38.67" height="3" rx="4" fill="#38bdf8" opacity="0.55"/>
<rect x="466" y="429" width="38.67" height="77" rx="4" fill="#38bdf8" opacity="0.55"/>
<rect x="510.67" y="436" width="38.67" height="70" rx="4" fill="#38bdf8" opacity="0.55"/>
<rect x="555.33" y="420" width="38.67" height="86" rx="4" fill="#c084fc" opacity="1"/>
<rect x="600" y="428" width="38.67" height="78" rx="4" fill="#38bdf8" opacity="0.55"/>
<rect x="644.67" y="425" width="38.67" height="81" rx="4" fill="#38bdf8" opacity="0.55"/>
<rect x="689.33" y="420" width="38.67" height="86" rx="4" fill="#38bdf8" opacity="0.55"/>
<rect x="734" y="430" width="38.67" height="76" rx="4" fill="#38bdf8" opacity="0.55"/>
<rect x="778.67" y="429" width="38.67" height="77" rx="4" fill="#38bdf8" opacity="0.55"/>
<rect x="823.33" y="425" width="38.67" height="81" rx="4" fill="#38bdf8" opacity="0.55"/>
<rect x="868" y="421" width="38.67" height="85" rx="4" fill="#38bdf8" opacity="0.55"/>
<rect x="912.67" y="503" width="38.67" height="3" rx="4" fill="#38bdf8" opacity="0.55"/>
<rect x="957.33" y="503" width="38.67" height="3" rx="4" fill="#38bdf8" opacity="0.55"/>
<rect x="1002" y="503" width="38.67" height="3" rx="4" fill="#38bdf8" opacity="0.55"/>
<rect x="1046.67" y="482" width="38.67" height="24" rx="4" fill="#38bdf8" opacity="0.55"/>
<rect x="1091.33" y="481" width="38.67" height="25" rx="4" fill="#38bdf8" opacity="0.55"/>
<text x="64" y="534" font-size="17" fill="#8a93b2" font-weight="400">00h</text>
<text x="332" y="534" font-size="17" fill="#8a93b2" font-weight="400">06h</text>
<text x="600" y="534" font-size="17" fill="#8a93b2" font-weight="400">12h</text>
<text x="868" y="534" font-size="17" fill="#8a93b2" font-weight="400">18h</text>
<text x="64" y="588" font-size="19" fill="#8a93b2" font-weight="400">shell-wrapped</text>
<text x="1136" y="588" font-size="19" fill="#8a93b2" font-weight="400" text-anchor="end">generated locally · nothing was uploaded</text>
</svg>
